<?xml version="1.0" encoding="UTF-8" standalone="no"?>
<!-- Generator: Adobe Illustrator 19.0.0, SVG Export Plug-In . SVG Version: 6.00 Build 0)  -->

<svg
   xmlns:dc="http://purl.org/dc/elements/1.1/"
   xmlns:cc="http://creativecommons.org/ns#"
   xmlns:rdf="http://www.w3.org/1999/02/22-rdf-syntax-ns#"
   xmlns:svg="http://www.w3.org/2000/svg"
   xmlns="http://www.w3.org/2000/svg"
   xmlns:sodipodi="http://sodipodi.sourceforge.net/DTD/sodipodi-0.dtd"
   xmlns:inkscape="http://www.inkscape.org/namespaces/inkscape"
   version="1.1"
   id="Layer_1"
   x="0px"
   y="0px"
   viewBox="0 0 96 96"
   style="enable-background:new 0 0 96 96;"
   xml:space="preserve"
   sodipodi:docname="live.svg"
   inkscape:version="0.92.4 (5da689c313, 2019-01-14)"><metadata
   id="metadata11"><rdf:RDF><cc:Work
       rdf:about=""><dc:format>image/svg+xml</dc:format><dc:type
         rdf:resource="http://purl.org/dc/dcmitype/StillImage" /></cc:Work></rdf:RDF></metadata><defs
   id="defs9" /><sodipodi:namedview
   pagecolor="#ffffff"
   bordercolor="#666666"
   borderopacity="1"
   objecttolerance="10"
   gridtolerance="10"
   guidetolerance="10"
   inkscape:pageopacity="0"
   inkscape:pageshadow="2"
   inkscape:window-width="716"
   inkscape:window-height="480"
   id="namedview7"
   showgrid="false"
   inkscape:zoom="3.4766083"
   inkscape:cx="50.754671"
   inkscape:cy="48.85685"
   inkscape:window-x="697"
   inkscape:window-y="197"
   inkscape:window-maximized="0"
   inkscape:current-layer="XMLID_2_" />
<style
   type="text/css"
   id="style2">
	.st0{fill:#333333;}
</style>
<g
   id="XMLID_2_"
   style="fill:#ff0000;fill-opacity:1;stroke-width:0.2;stroke-miterlimit:4;stroke-dasharray:none">
	<path
   id="XMLID_8_"
   class="st0"
   d="m 37.647604,61.460723 c 10.2,0 4.922613,6.422675 6.90328,5.465097 L 56.91926,60.946174 C 55.087849,57.530859 3.1896321,63.645206 48.287637,63.465096 M 48,20.5 C 40.4,20.5 34.2,26.7 34.2,34.3 34.3,41.8 40.4,48 48,48 55.6,48 61.8,41.8 61.8,34.2 61.8,26.7 55.6,20.5 48,20.5 Z m 0,30.9 c -9.2,0 -27.5,4.6 -27.5,13.8 v 10.3 h 55 V 65.2 C 75.5,56 57.2,51.4 48,51.4 Z"
   style="fill:#ff0000;fill-opacity:1;stroke-width:0.2;stroke-miterlimit:4;stroke-dasharray:none"
   inkscape:connector-curvature="0"
   sodipodi:nodetypes="csccscsssssccss" />
</g>
</svg>